<svg xmlns="http://www.w3.org/2000/svg" width="1600" height="760" viewBox="0 0 1600 760" role="img" aria-labelledby="title desc">
  <title id="title">Abstract travel landscape background</title>
  <desc id="desc">Soft local SVG background with mountains, sun, and travel route lines.</desc>
  <defs>
    <linearGradient id="sky" x1="0" x2="1" y1="0" y2="1">
      <stop stop-color="#EAF6FC"/>
      <stop offset="0.62" stop-color="#FDFEFE"/>
      <stop offset="1" stop-color="#EAF8F0"/>
    </linearGradient>
    <linearGradient id="hill" x1="0" x2="1">
      <stop stop-color="#2980B9" stop-opacity="0.72"/>
      <stop offset="1" stop-color="#27AE60" stop-opacity="0.82"/>
    </linearGradient>
  </defs>
  <rect width="1600" height="760" fill="url(#sky)"/>
  <circle cx="1285" cy="150" r="92" fill="#27AE60" opacity="0.16"/>
  <path d="M0 570 C230 450 360 520 560 420 C790 305 930 485 1135 360 C1310 255 1455 330 1600 230 L1600 760 L0 760 Z" fill="url(#hill)" opacity="0.45"/>
  <path d="M0 650 C240 560 420 610 650 500 C910 375 1095 530 1305 430 C1430 370 1520 365 1600 330 L1600 760 L0 760 Z" fill="#1F2933" opacity="0.08"/>
  <path d="M170 260 C360 205 435 345 625 290 S930 150 1120 255 S1355 390 1490 290" fill="none" stroke="#2980B9" stroke-width="8" stroke-linecap="round" stroke-dasharray="2 28" opacity="0.28"/>
  <circle cx="170" cy="260" r="14" fill="#2980B9" opacity="0.36"/>
  <circle cx="1490" cy="290" r="14" fill="#27AE60" opacity="0.42"/>
</svg>
