<svg xmlns="http://www.w3.org/2000/svg" width="1600" height="520" viewBox="0 0 1600 520" role="img" aria-labelledby="title desc">
  <title id="title">Trip preferences background</title>
  <desc id="desc">Soft local SVG background with abstract checklist cards and map route.</desc>
  <defs>
    <linearGradient id="bg" x1="0" x2="1" y1="0" y2="1">
      <stop stop-color="#EAF6FC"/>
      <stop offset="1" stop-color="#EAF8F0"/>
    </linearGradient>
  </defs>
  <rect width="1600" height="520" fill="url(#bg)"/>
  <circle cx="1280" cy="120" r="170" fill="#2980B9" opacity="0.13"/>
  <circle cx="210" cy="420" r="185" fill="#27AE60" opacity="0.12"/>
  <rect x="925" y="120" width="380" height="260" rx="24" fill="#ffffff" opacity="0.72"/>
  <rect x="970" y="170" width="220" height="20" rx="10" fill="#2980B9" opacity="0.35"/>
  <rect x="970" y="225" width="285" height="20" rx="10" fill="#27AE60" opacity="0.35"/>
  <rect x="970" y="280" width="250" height="20" rx="10" fill="#2980B9" opacity="0.25"/>
  <path d="M170 205 C355 105 455 250 630 180 C760 130 820 150 900 215" fill="none" stroke="#2980B9" stroke-width="8" stroke-linecap="round" stroke-dasharray="3 28" opacity="0.28"/>
  <path d="M0 460 C290 385 530 440 790 370 C1090 290 1290 370 1600 300 L1600 520 L0 520 Z" fill="#ffffff" opacity="0.45"/>
</svg>
