<svg xmlns="http://www.w3.org/2000/svg" width="1600" height="560" viewBox="0 0 1600 560" role="img" aria-labelledby="title desc">
  <title id="title">Travel recommendations background</title>
  <desc id="desc">Abstract local SVG background with route cards and soft travel shapes.</desc>
  <defs>
    <linearGradient id="bg" x1="0" x2="1" y1="0" y2="1">
      <stop stop-color="#1F2933"/>
      <stop offset="0.58" stop-color="#2980B9"/>
      <stop offset="1" stop-color="#27AE60"/>
    </linearGradient>
  </defs>
  <rect width="1600" height="560" fill="url(#bg)"/>
  <circle cx="1320" cy="70" r="145" fill="#ffffff" opacity="0.11"/>
  <circle cx="190" cy="420" r="210" fill="#ffffff" opacity="0.08"/>
  <rect x="850" y="155" width="250" height="150" rx="20" fill="#ffffff" opacity="0.16"/>
  <rect x="1135" y="220" width="250" height="150" rx="20" fill="#ffffff" opacity="0.14"/>
  <rect x="980" y="350" width="250" height="150" rx="20" fill="#ffffff" opacity="0.12"/>
  <path d="M130 230 C360 115 475 325 690 210 C850 125 930 170 1030 230" fill="none" stroke="#EAF8F0" stroke-width="9" stroke-linecap="round" stroke-dasharray="4 30" opacity="0.46"/>
  <path d="M0 495 C270 430 470 470 720 395 C990 315 1200 390 1600 310 L1600 560 L0 560 Z" fill="#ffffff" opacity="0.11"/>
</svg>
